<svg xmlns="http://www.w3.org/2000/svg" width="109.726" height="146" viewBox="0 0 109.726 146">
  <path id="arrow-up" d="M89.919,5.646c2.926,7.662,10.059,18.97,16.21,25.7A56.252,56.252,0,0,0,140.75,49.422l5.25.662v9.624l-5.25.662c-17.281,2.179-31.241,11.437-42.294,28.048a103.074,103.074,0,0,0-8.091,14.642c-1.411,3.485-2.65,6.429-2.755,6.543-.76.827-9.173-2.745-9.421-4-.4-2.022,5.421-14.63,10.2-22.107A87.153,87.153,0,0,1,106.34,63.745l4.84-3.849H0v-10H111.18l-4.84-3.849A87.153,87.153,0,0,1,88.393,26.3c-4.8-7.5-10.6-20.085-10.2-22.126C78.436,2.906,83.226.667,87.111,0,87.447-.057,88.711,2.483,89.919,5.646Z" transform="translate(0 146) rotate(-90)" fill="#c23434" fill-rule="evenodd"/>
</svg>
