<svg width="20" height="20" viewBox="0 0 20 20" fill="none" xmlns="http://www.w3.org/2000/svg">
<path fill-rule="evenodd" clip-rule="evenodd" d="M5.87733 0.06C6.944 0.0113333 7.284 0 10 0C12.7167 0 13.056 0.012 14.122 0.06C15.1867 0.108667 15.9147 0.278667 16.5507 0.524667C17.2177 0.775906 17.8219 1.16948 18.3213 1.678C18.83 2.17755 19.2236 2.78204 19.4747 3.44933C19.722 4.08533 19.8913 4.81267 19.94 5.87733C19.9887 6.944 20 7.284 20 10C20 12.716 19.9887 13.056 19.94 14.1227C19.8913 15.1873 19.722 15.9147 19.4753 16.5507C19.2241 17.2177 18.8305 17.8219 18.322 18.3213C17.822 18.8307 17.2173 19.224 16.5507 19.4747C15.9147 19.722 15.1873 19.8913 14.1227 19.94C13.056 19.9887 12.716 20 10 20C7.284 20 6.944 19.9887 5.87733 19.94C4.81267 19.8913 4.08533 19.722 3.44933 19.4753C2.78234 19.2241 2.1781 18.8305 1.67867 18.322C1.16933 17.822 0.776 17.2173 0.525333 16.5507C0.278 15.9147 0.108667 15.1873 0.06 14.1227C0.0113333 13.056 0 12.7167 0 10C0 7.28333 0.012 6.944 0.06 5.878C0.108667 4.81333 0.278667 4.08533 0.524667 3.44933C0.775906 2.78233 1.16948 2.17809 1.678 1.67867C2.178 1.16933 2.78267 0.776 3.44933 0.525333C4.08533 0.278 4.81267 0.108667 5.87733 0.06ZM14.0413 1.86C12.9867 1.812 12.67 1.802 10 1.802C7.33 1.802 7.01333 1.812 5.95867 1.86C4.984 1.90467 4.45467 2.06733 4.102 2.20467C3.66761 2.36465 3.27463 2.62003 2.952 2.952C2.60267 3.302 2.38533 3.63533 2.20467 4.102C2.06667 4.45467 1.90467 4.984 1.86 5.95867C1.812 7.01333 1.802 7.33 1.802 10C1.802 12.67 1.812 12.9867 1.86 14.0413C1.90467 15.016 2.06733 15.5453 2.20467 15.898C2.36475 16.3323 2.62012 16.7253 2.952 17.048C3.27467 17.3799 3.66764 17.6353 4.102 17.7953C4.45467 17.9333 4.984 18.0953 5.95867 18.14C7.01333 18.188 7.32933 18.198 10 18.198C12.6707 18.198 12.9867 18.188 14.0413 18.14C15.016 18.0953 15.5453 17.9327 15.898 17.7953C16.3324 17.6354 16.7254 17.38 17.048 17.048C17.3799 16.7253 17.6353 16.3324 17.7953 15.898C17.9333 15.5453 18.0953 15.016 18.14 14.0413C18.188 12.9867 18.198 12.67 18.198 10C18.198 7.33 18.188 7.01333 18.14 5.95867C18.0953 4.984 17.9327 4.45467 17.7953 4.102C17.6147 3.63533 17.398 3.302 17.048 2.952C16.698 2.60267 16.3647 2.38533 15.898 2.20467C15.5453 2.06667 15.016 1.90467 14.0413 1.86ZM8.72289 13.6336C9.12771 13.8013 9.5616 13.8876 9.99977 13.8876C10.8847 13.8876 11.7334 13.536 12.3592 12.9103C12.9849 12.2845 13.3364 11.4358 13.3364 10.5509C13.3364 9.66596 12.9849 8.81726 12.3592 8.19152C11.7334 7.56577 10.8847 7.21423 9.99977 7.21423C9.5616 7.21423 9.12771 7.30054 8.72289 7.46822C8.31806 7.6359 7.95023 7.88168 7.6404 8.19152C7.33056 8.50136 7.08478 8.86919 6.9171 9.27401C6.74941 9.67883 6.66311 10.1127 6.66311 10.5509C6.66311 10.9891 6.74941 11.423 6.9171 11.8278C7.08478 12.2326 7.33056 12.6004 7.6404 12.9103C7.95023 13.2201 8.31806 13.4659 8.72289 13.6336ZM6.36525 6.91637C7.32918 5.95243 8.63656 5.4109 9.99977 5.4109C11.363 5.4109 12.6704 5.95243 13.6343 6.91637C14.5982 7.88031 15.1398 9.18769 15.1398 10.5509C15.1398 11.9141 14.5982 13.2215 13.6343 14.1854C12.6704 15.1494 11.363 15.6909 9.99977 15.6909C8.63656 15.6909 7.32918 15.1494 6.36525 14.1854C5.40131 13.2215 4.85978 11.9141 4.85978 10.5509C4.85978 9.18769 5.40131 7.88031 6.36525 6.91637ZM16.2792 6.1767C16.5071 5.94884 16.6351 5.6398 16.6351 5.31756C16.6351 4.99533 16.5071 4.68629 16.2792 4.45843C16.0514 4.23057 15.7423 4.10256 15.4201 4.10256C15.0979 4.10256 14.7888 4.23057 14.561 4.45843C14.3331 4.68629 14.2051 4.99533 14.2051 5.31756C14.2051 5.6398 14.3331 5.94884 14.561 6.1767C14.7888 6.40456 15.0979 6.53256 15.4201 6.53256C15.7423 6.53256 16.0514 6.40456 16.2792 6.1767Z" fill="#4A3A23"/>
</svg>
