<svg width="16" height="15" viewBox="0 0 16 15" fill="none" xmlns="http://www.w3.org/2000/svg">
<path d="M13.6792 14.1524L8.88005 9.35316C8.51211 9.6249 8.08616 9.8412 7.6022 10.0021C7.11823 10.1629 6.59771 10.2434 6.04064 10.2434C4.61456 10.2434 3.40491 9.74677 2.41169 8.75356C1.41848 7.76036 0.921875 6.55071 0.921875 5.12463C0.921875 3.69854 1.41848 2.48889 2.41169 1.49568C3.40491 0.502465 4.61456 0.00585938 6.04064 0.00585938C7.46673 0.00585938 8.67638 0.502465 9.66959 1.49568C10.6628 2.48889 11.1594 3.69854 11.1594 5.12463C11.1594 5.68875 11.079 6.20927 10.9181 6.68618C10.7572 7.16308 10.5409 7.58196 10.2692 7.94283L15.079 12.7632L13.6792 14.1524ZM6.04064 8.25584C6.91456 8.25584 7.65491 7.95245 8.26169 7.34566C8.86848 6.73888 9.17188 5.99854 9.17188 5.12463C9.17188 4.25072 8.86848 3.51037 8.26169 2.90358C7.65491 2.29679 6.91456 1.9934 6.04064 1.9934C5.16673 1.9934 4.42638 2.29679 3.81959 2.90358C3.21281 3.51037 2.90941 4.25072 2.90941 5.12463C2.90941 5.99854 3.21281 6.73889 3.81959 7.34568C4.42638 7.95246 5.16673 8.25584 6.04064 8.25584Z" fill="#EA731C"/>
</svg>
